Coordinates
nRows=129
nColumns=2
inDegrees=yes
endheader
time	ankle_angle_r	
2.79133	 18.722534	
2.8629	 18.664734	
2.93448	 18.649683	
3.00605	 18.615723	
3.07762	 18.634840	
3.14919	 18.696083	
3.22077	 18.574221	
3.29234	 18.635464	
3.36391	 18.605154	
3.43548	 18.656601	
3.50706	 18.575052	
3.57863	 18.589834	
3.6502	 18.680971	
3.72177	 18.619520	
3.79335	 18.619104	
3.86492	 18.585205	
3.93649	 18.670403	
4.00806	 18.644108	
4.07964	 18.639469	
4.15121	 18.685038	
4.22278	 18.699203	
4.29435	 18.723003	
4.36593	 18.638584	
4.4375	 18.668583	
4.50907	 18.661499	
4.58065	 18.608690	
4.65222	 18.608898	
4.72379	 18.607080	
4.79536	 18.646240	
4.86694	 18.594265	
4.93851	 18.548136	
5.01008	 18.636765	
5.08165	 18.604572	
5.15323	 18.620247	
5.2248	 18.590364	
5.29637	 18.651192	
5.36794	 18.672014	
5.43952	 18.661499	
5.51109	 18.700672	
5.58266	 18.696136	
5.65423	 18.741705	
5.72581	 18.676758	
5.79738	 18.714266	
5.86895	 18.698591	
5.94052	 18.658421	
6.0121	 18.646240	
6.08367	 18.633644	
6.15524	 18.633436	
6.22681	 18.600464	
6.29839	 18.569946	
6.36996	 18.649902	
6.44153	 18.627735	
6.5131	 18.626736	
6.58468	 18.600464	
6.65625	 18.645241	
6.72782	 18.675177	
6.7994	 18.614557	
6.87097	 18.646616	
6.94254	 18.692017	
7.01411	 18.722616	
7.08569	 18.707275	
7.15726	 18.691559	
7.22883	 18.737793	
7.3004	 18.664118	
7.37198	 18.616804	
7.44355	 18.643661	
7.51512	 18.661499	
7.58669	 18.632687	
7.65827	 18.596638	
7.72984	 18.646240	
7.80141	 18.615723	
7.87298	 18.643703	
7.94456	 18.594973	
8.01613	 18.609816	
8.0877	 18.646240	
8.15927	 18.600464	
8.23085	 18.622877	
8.30242	 18.619509	
8.37399	 18.688023	
8.44556	 18.665701	
8.51714	 18.665909	
8.58871	 18.737793	
8.66028	 18.712101	
8.73185	 18.702084	
8.80343	 18.651482	
8.875	 18.665859	
8.94657	 18.650185	
9.01815	 18.606329	
9.08972	 18.621796	
9.16129	 18.618418	
9.23286	 18.646240	
9.30444	 18.615723	
9.37601	 18.585205	
9.44758	 18.647272	
9.51915	 18.607786	
9.59073	 18.615921	
9.6623	 18.600681	
9.73387	 18.638927	
9.80544	 18.692017	
9.87702	 18.669861	
9.94859	 18.705395	
10.0202	 18.698498	
10.0917	 18.722534	
10.1633	 18.670692	
10.2349	 18.646240	
10.3065	 18.676758	
10.378	 18.640799	
10.4496	 18.610491	
10.5212	 18.595440	
10.5927	 18.661499	
10.6643	 18.624941	
10.7359	 18.574347	
10.8075	 18.637856	
10.879	 18.604448	
10.9506	 18.672981	
11.0222	 18.577084	
11.0937	 18.600464	
11.1653	 18.658346	
11.2369	 18.597519	
11.3085	 18.615723	
11.38	 18.564802	
11.4516	 18.648561	
11.5232	 18.604689	
11.5948	 18.596655	
11.6663	 18.725927	
11.7379	 18.675270	
11.8095	 18.676758	
11.881	 18.676758	
11.9526	 18.738657	
